# xmcd
#
# Track frame offsets:
#	150
#	18870
#	34325
#	54777
#	74002
#	95270
#	109625
#	124425
#	138100
#	156805
#	172245
#	192812
#	212017
#	233282
#	247622
#	262392
#
# Disc length: 3681 seconds
#
# Revision: 1
# Processed by: cddbd v1.5.1PL2 Copyright (c) Steve Scherf et al.
# Submitted via: audiograbber 1.83.01
#
DISCID=d60e5f10
DTITLE=Various Artist - Sc2067
DYEAR=1900
DGENRE=Country
TTITLE0=Tractors, The - Baby Likes To Rock It
TTITLE1=McEntire, Reba and Gill, Vince - Oklahoma Swing
TTITLE2=Rednex, The - Coton Eye Joe
TTITLE3=Yoakam, Dwight - Fast As You
TTITLE4=Brooks and Dunn - Neon Moon
TTITLE5=Tritt, Travis - TROUBLE
TTITLE6=Byrd, Tracy - Watermelon Crawl
TTITLE7=Tucker, Tanya - San Antonio Stroll
TTITLE8=Tractors, The - Baby Likes To Rock It (Vocals)
TTITLE9=McEntire, Reba and Gill, Vince - Oklahoma Swing (Vocals)
TTITLE10=Rednex, The - Coton Eye Joe (Vocals)
TTITLE11=Yoakam, Dwight - Fast As You (Vocals)
TTITLE12=Brooks and Dunn - Neon Moon (Vocals)
TTITLE13=Tritt, Travis - TROUBLE (Vocals)
TTITLE14=Tritt, Travis - Watermelon Crawl (Vocals)
TTITLE15=Tucker, Tanya - San Antonio Stroll (Vocals)
EXTD=
EXTT0=
EXTT1=
EXTT2=
EXTT3=
EXTT4=
EXTT5=
EXTT6=
EXTT7=
EXTT8=
EXTT9=
EXTT10=
EXTT11=
EXTT12=
EXTT13=
EXTT14=
EXTT15=
PLAYORDER=
